# xmcd
#
# Track frame offsets:
#	200
#	12647
#	22132
#	30387
#	41932
#	54735
#	71332
#	85542
#	99325
#	121240
#	136360
#	148125
#	159320
#	171615
#
# Disc length: 2430
#
# Revision: 3
# Processed by: cddbd v1.5.1PL0 Copyright (c) Steve Scherf et al.
# Submitted via: EasyCDDAExtractor 5.0.0.0
# Normalized: r2:DSETVAR1,TDELIM( - )
#
DISCID=c1097c0e
DTITLE=Various Artist - A Rhythm and Blues Christmas (Volume 3)
DYEAR=1994
DGENRE=Blues
TTITLE0=Jimmy Beaumont and The Skyliners - You're My Christmas Present
TTITLE1=The Marcels - Merry Twist-Mas
TTITLE2=The Shells - Happy Holiday
TTITLE3=Frankie Lymon - Silent Night
TTITLE4=The Heartbeats - After New Years Eve
TTITLE5=The Ecstasys - White Christmas
TTITLE6=The Manhattans - It's That Time Of The Year
TTITLE7=Little Eva and Big Dee Irwin - The Christmas Song
TTITLE8=Texas Pete Mayes - Christmas Holidays
TTITLE9=The Shirelles - Blue Holiday
TTITLE10=The Valentines - Christmas Prayer
TTITLE11=Margo Sylvia and The Tuneweavers - Merry Merry Chirstmas Baby
TTITLE12=The Ecstasys - Silent Night
TTITLE13=Patti LaBelle and The Bluebelles - Auld Lang Syne
EXTD=
EXTT0=
EXTT1=
EXTT2=
EXTT3=
EXTT4=
EXTT5=
EXTT6=
EXTT7=
EXTT8=
EXTT9=
EXTT10=
EXTT11=
EXTT12=
EXTT13=
PLAYORDER=
